Nunito-Regular-master.ufo
<glyph name="zero" format="1">
  <advance width="1230"/>
  <unicode hex="0030"/>
  <outline>
    <contour>
      <point x="615" y="190" type="curve" smooth="yes"/>
      <point x="381" y="190"/>
      <point x="349" y="479"/>
      <point x="349" y="735" type="curve" smooth="yes"/>
      <point x="349" y="991"/>
      <point x="381" y="1269"/>
      <point x="615" y="1269" type="curve" smooth="yes"/>
      <point x="849" y="1269"/>
      <point x="881" y="991"/>
      <point x="881" y="735" type="curve" smooth="yes"/>
      <point x="881" y="479"/>
      <point x="849" y="190"/>
    </contour>
    <contour>
      <point x="615" y="-22" type="curve" smooth="yes"/>
      <point x="1023" y="-22"/>
      <point x="1146" y="352"/>
      <point x="1146" y="735" type="curve" smooth="yes"/>
      <point x="1146" y="1118"/>
      <point x="1023" y="1481"/>
      <point x="615" y="1481" type="curve" smooth="yes"/>
      <point x="205" y="1481"/>
      <point x="83" y="1118"/>
      <point x="83" y="735" type="curve" smooth="yes"/>
      <point x="83" y="352"/>
      <point x="206" y="-22"/>
    </contour>
  </outline>
</glyph>
<glyph name="five" format="1">
  <advance width="1214"/>
  <unicode hex="0035"/>
  <outline>
    <contour>
      <point x="616" y="-22" type="curve" smooth="yes"/>
      <point x="896" y="-22"/>
      <point x="1122" y="162"/>
      <point x="1122" y="453" type="curve" smooth="yes"/>
      <point x="1122" y="728"/>
      <point x="933" y="913"/>
      <point x="674" y="913" type="curve" smooth="yes"/>
      <point x="469" y="913"/>
      <point x="381" y="830"/>
      <point x="381" y="830" type="curve"/>
      <point x="381" y="1241" type="line"/>
      <point x="955" y="1241" type="line" smooth="yes"/>
      <point x="1014" y="1241"/>
      <point x="1043" y="1292"/>
      <point x="1043" y="1339" type="curve" smooth="yes"/>
      <point x="1043" y="1386"/>
      <point x="1014" y="1438"/>
      <point x="955" y="1438" type="curve" smooth="yes"/>
      <point x="303" y="1438" type="line" smooth="yes"/>
      <point x="215" y="1438"/>
      <point x="172" y="1403"/>
      <point x="172" y="1319" type="curve" smooth="yes"/>
      <point x="172" y="701" type="line" smooth="yes"/>
      <point x="172" y="625"/>
      <point x="346" y="583"/>
      <point x="376" y="606" type="curve" smooth="yes"/>
      <point x="436" y="651"/>
      <point x="523" y="708"/>
      <point x="630" y="708" type="curve" smooth="yes"/>
      <point x="772" y="708"/>
      <point x="870" y="618"/>
      <point x="870" y="461" type="curve" smooth="yes"/>
      <point x="870" y="291"/>
      <point x="780" y="190"/>
      <point x="605" y="190" type="curve" smooth="yes"/>
      <point x="480" y="190"/>
      <point x="379" y="233"/>
      <point x="298" y="292" type="curve" smooth="yes"/>
      <point x="211" y="356"/>
      <point x="106" y="188"/>
      <point x="177" y="129" type="curve" smooth="yes"/>
      <point x="276" y="47"/>
      <point x="408" y="-22"/>
    </contour>
  </outline>
</glyph>
<glyph name="at" format="1">
  <advance width="1638"/>
  <unicode hex="0040"/>
  <outline>
    <contour>
      <point x="809" y="-27" type="curve" smooth="yes"/>
      <point x="911" y="-27"/>
      <point x="1017" y="-12"/>
      <point x="1127" y="21" type="curve" smooth="yes"/>
      <point x="1156" y="29"/>
      <point x="1170" y="54"/>
      <point x="1170" y="79" type="curve" smooth="yes"/>
      <point x="1170" y="110"/>
      <point x="1147" y="142"/>
      <point x="1106" y="142" type="curve" smooth="yes"/>
      <point x="1097" y="142"/>
      <point x="1088" y="141"/>
      <point x="1079" y="138" type="curve" smooth="yes"/>
      <point x="994" y="111"/>
      <point x="909" y="100"/>
      <point x="825" y="100" type="curve" smooth="yes"/>
      <point x="493" y="100"/>
      <point x="205" y="305"/>
      <point x="205" y="721" type="curve" smooth="yes"/>
      <point x="205" y="1142"/>
      <point x="567" y="1382"/>
      <point x="895" y="1382" type="curve" smooth="yes"/>
      <point x="1164" y="1382"/>
      <point x="1409" y="1219"/>
      <point x="1409" y="862" type="curve" smooth="yes"/>
      <point x="1409" y="632"/>
      <point x="1266" y="420"/>
      <point x="1131" y="420" type="curve" smooth="yes"/>
      <point x="1095" y="420"/>
      <point x="1081" y="439"/>
      <point x="1081" y="471" type="curve" smooth="yes"/>
      <point x="1081" y="498"/>
      <point x="1090" y="535"/>
      <point x="1104" y="583" type="curve" smooth="yes"/>
      <point x="1245" y="1053" type="line" smooth="yes"/>
      <point x="1247" y="1062"/>
      <point x="1248" y="1070"/>
      <point x="1248" y="1077" type="curve" smooth="yes"/>
      <point x="1248" y="1118"/>
      <point x="1215" y="1139"/>
      <point x="1179" y="1139" type="curve" smooth="yes"/>
      <point x="1143" y="1139"/>
      <point x="1113" y="1121"/>
      <point x="1100" y="1082" type="curve" smooth="yes"/>
      <point x="1091" y="1054" type="line"/>
      <point x="1044" y="1142"/>
      <point x="954" y="1184"/>
      <point x="857" y="1184" type="curve" smooth="yes"/>
      <point x="570" y="1184"/>
      <point x="375" y="882"/>
      <point x="375" y="615" type="curve" smooth="yes"/>
      <point x="375" y="439"/>
      <point x="488" y="290"/>
      <point x="676" y="290" type="curve" smooth="yes"/>
      <point x="800" y="290"/>
      <point x="881" y="340"/>
      <point x="945" y="437" type="curve"/>
      <point x="945" y="340"/>
      <point x="1029" y="296"/>
      <point x="1099" y="296" type="curve" smooth="yes"/>
      <point x="1304" y="296"/>
      <point x="1560" y="549"/>
      <point x="1560" y="877" type="curve" smooth="yes"/>
      <point x="1560" y="1309"/>
      <point x="1239" y="1511"/>
      <point x="893" y="1511" type="curve" smooth="yes"/>
      <point x="489" y="1511"/>
      <point x="50" y="1235"/>
      <point x="50" y="731" type="curve" smooth="yes"/>
      <point x="50" y="255"/>
      <point x="377" y="-27"/>
    </contour>
    <contour>
      <point x="723" y="429" type="curve" smooth="yes"/>
      <point x="598" y="429"/>
      <point x="562" y="514"/>
      <point x="562" y="643" type="curve" smooth="yes"/>
      <point x="562" y="810"/>
      <point x="680" y="1042"/>
      <point x="860" y="1042" type="curve" smooth="yes"/>
      <point x="1007" y="1042"/>
      <point x="1052" y="926"/>
      <point x="1052" y="926" type="curve"/>
      <point x="960" y="600" type="line"/>
      <point x="930" y="507"/>
      <point x="840" y="429"/>
    </contour>
  </outline>
</glyph>
<glyph name="B" format="1">
  <advance width="1375"/>
  <unicode hex="0042"/>
  <outline>
    <contour>
      <point x="666" y="1438" type="move" name="top"/>
    </contour>
    <contour>
      <point x="302" y="0" type="curve" smooth="yes"/>
      <point x="764" y="0" type="line" smooth="yes"/>
      <point x="1108" y="0"/>
      <point x="1288" y="192"/>
      <point x="1288" y="384" type="curve" smooth="yes"/>
      <point x="1288" y="604"/>
      <point x="1159" y="717"/>
      <point x="959" y="746" type="curve"/>
      <point x="959" y="750" type="line"/>
      <point x="1143" y="785"/>
      <point x="1225" y="905"/>
      <point x="1225" y="1085" type="curve" smooth="yes"/>
      <point x="1225" y="1295"/>
      <point x="1075" y="1438"/>
      <point x="737" y="1438" type="curve" smooth="yes"/>
      <point x="302" y="1438" type="line" smooth="yes"/>
      <point x="230" y="1438"/>
      <point x="173" y="1381"/>
      <point x="173" y="1310" type="curve" smooth="yes"/>
      <point x="173" y="127" type="line" smooth="yes"/>
      <point x="173" y="57"/>
      <point x="230" y="0"/>
    </contour>
    <contour>
      <point x="439" y="206" type="line"/>
      <point x="439" y="634" type="line"/>
      <point x="647" y="634" type="line" smooth="yes"/>
      <point x="883" y="634"/>
      <point x="1012" y="614"/>
      <point x="1012" y="415" type="curve" smooth="yes"/>
      <point x="1012" y="233"/>
      <point x="909" y="206"/>
      <point x="721" y="206" type="curve" smooth="yes"/>
    </contour>
    <contour>
      <point x="439" y="838" type="line"/>
      <point x="439" y="1234" type="line"/>
      <point x="713" y="1234" type="line" smooth="yes"/>
      <point x="869" y="1234"/>
      <point x="968" y="1216"/>
      <point x="968" y="1058" type="curve" smooth="yes"/>
      <point x="968" y="895"/>
      <point x="894" y="838"/>
      <point x="685" y="838" type="curve" smooth="yes"/>
    </contour>
  </outline>
</glyph>
<glyph name="I" format="1">
  <advance width="637"/>
  <unicode hex="0049"/>
  <outline>
    <contour>
      <point x="317" y="1438" type="move" name="top"/>
    </contour>
    <contour>
      <point x="318" y="2" type="curve" smooth="yes"/>
      <point x="386" y="2"/>
      <point x="452" y="45"/>
      <point x="452" y="130" type="curve" smooth="yes"/>
      <point x="452" y="1311" type="line" smooth="yes"/>
      <point x="452" y="1397"/>
      <point x="386" y="1440"/>
      <point x="319" y="1440" type="curve" smooth="yes"/>
      <point x="252" y="1440"/>
      <point x="186" y="1397"/>
      <point x="186" y="1311" type="curve" smooth="yes"/>
      <point x="186" y="130" type="line" smooth="yes"/>
      <point x="186" y="45"/>
      <point x="251" y="2"/>
    </contour>
  </outline>
</glyph>
<glyph name="L" format="1">
  <advance width="1129"/>
  <unicode hex="004C"/>
  <outline>
    <contour>
      <point x="586" y="1438" type="move" name="top"/>
    </contour>
    <contour>
      <point x="674" y="0" type="move" name="bot"/>
    </contour>
    <contour>
      <point x="308" y="0" type="curve" smooth="yes"/>
      <point x="1020" y="0" type="line" smooth="yes"/>
      <point x="1087" y="0"/>
      <point x="1121" y="54"/>
      <point x="1121" y="105" type="curve" smooth="yes"/>
      <point x="1121" y="155"/>
      <point x="1087" y="211"/>
      <point x="1020" y="211" type="curve" smooth="yes"/>
      <point x="439" y="211" type="line"/>
      <point x="439" y="1307" type="line" smooth="yes"/>
      <point x="439" y="1393"/>
      <point x="374" y="1436"/>
      <point x="307" y="1436" type="curve" smooth="yes"/>
      <point x="239" y="1436"/>
      <point x="173" y="1393"/>
      <point x="173" y="1307" type="curve" smooth="yes"/>
      <point x="173" y="133" type="line" smooth="yes"/>
      <point x="173" y="59"/>
      <point x="236" y="0"/>
    </contour>
  </outline>
</glyph>
<glyph name="M" format="1">
  <advance width="1924"/>
  <unicode hex="004D"/>
  <outline>
    <contour>
      <point x="976" y="1438" type="move" name="top"/>
    </contour>
    <contour>
      <point x="953" y="48" type="curve"/>
      <point x="953" y="373" type="line"/>
      <point x="590" y="1241" type="line" smooth="yes"/>
      <point x="495" y="1468"/>
      <point x="173" y="1406"/>
      <point x="173" y="1222" type="curve" smooth="yes"/>
      <point x="173" y="116" type="line" smooth="yes"/>
      <point x="173" y="-1"/>
      <point x="419" y="-1"/>
      <point x="419" y="116" type="curve" smooth="yes"/>
      <point x="419" y="1089" type="line"/>
      <point x="801" y="163" type="line" smooth="yes"/>
      <point x="832" y="88"/>
      <point x="894" y="48"/>
    </contour>
    <contour>
      <point x="954" y="48" type="line"/>
      <point x="1013" y="48"/>
      <point x="1075" y="88"/>
      <point x="1106" y="163" type="curve" smooth="yes"/>
      <point x="1488" y="1089" type="line"/>
      <point x="1488" y="116" type="line" smooth="yes"/>
      <point x="1488" y="-1"/>
      <point x="1734" y="-1"/>
      <point x="1734" y="116" type="curve" smooth="yes"/>
      <point x="1734" y="1222" type="line" smooth="yes"/>
      <point x="1734" y="1406"/>
      <point x="1412" y="1468"/>
      <point x="1317" y="1241" type="curve" smooth="yes"/>
      <point x="954" y="373" type="line"/>
    </contour>
  </outline>
</glyph>
<glyph name="N" format="1">
  <advance width="1557"/>
  <unicode hex="004E"/>
  <outline>
    <contour>
      <point x="806" y="1438" type="move" name="top"/>
    </contour>
    <contour>
      <point x="810" y="0" type="move" name="bot"/>
    </contour>
    <contour>
      <point x="289" y="0" type="curve" smooth="yes"/>
      <point x="348" y="0"/>
      <point x="412" y="38"/>
      <point x="412" y="113" type="curve" smooth="yes"/>
      <point x="412" y="1031" type="line"/>
      <point x="1079" y="88" type="line" smooth="yes"/>
      <point x="1118" y="33"/>
      <point x="1194" y="0"/>
      <point x="1243" y="0" type="curve" smooth="yes"/>
      <point x="1320" y="0"/>
      <point x="1389" y="59"/>
      <point x="1389" y="159" type="curve" smooth="yes"/>
      <point x="1389" y="1324" type="line" smooth="yes"/>
      <point x="1389" y="1400"/>
      <point x="1327" y="1438"/>
      <point x="1268" y="1438" type="curve" smooth="yes"/>
      <point x="1208" y="1438"/>
      <point x="1146" y="1399"/>
      <point x="1146" y="1324" type="curve" smooth="yes"/>
      <point x="1146" y="401" type="line"/>
      <point x="471" y="1360" type="line" smooth="yes"/>
      <point x="433" y="1414"/>
      <point x="362" y="1437"/>
      <point x="311" y="1437" type="curve" smooth="yes"/>
      <point x="235" y="1437"/>
      <point x="168" y="1379"/>
      <point x="168" y="1278" type="curve" smooth="yes"/>
      <point x="168" y="113" type="line" smooth="yes"/>
      <point x="168" y="37"/>
      <point x="230" y="0"/>
    </contour>
  </outline>
</glyph>
<glyph name="P" format="1">
  <advance width="1302"/>
  <unicode hex="0050"/>
  <outline>
    <contour>
      <point x="666" y="1438" type="move" name="top"/>
    </contour>
    <contour>
      <point x="306" y="-1" type="curve" smooth="yes"/>
      <point x="374" y="-1"/>
      <point x="439" y="42"/>
      <point x="439" y="128" type="curve" smooth="yes"/>
      <point x="439" y="581" type="line"/>
      <point x="724" y="581" type="line" smooth="yes"/>
      <point x="1059" y="581"/>
      <point x="1267" y="694"/>
      <point x="1267" y="1011" type="curve" smooth="yes"/>
      <point x="1267" y="1322"/>
      <point x="1068" y="1438"/>
      <point x="748" y="1438" type="curve" smooth="yes"/>
      <point x="308" y="1438" type="line" smooth="yes"/>
      <point x="233" y="1438"/>
      <point x="173" y="1378"/>
      <point x="173" y="1305" type="curve" smooth="yes"/>
      <point x="173" y="128" type="line" smooth="yes"/>
      <point x="173" y="42"/>
      <point x="239" y="-1"/>
    </contour>
    <contour>
      <point x="439" y="783" type="line"/>
      <point x="439" y="1227" type="line"/>
      <point x="720" y="1227" type="line" smooth="yes"/>
      <point x="896" y="1227"/>
      <point x="1005" y="1197"/>
      <point x="1005" y="1011" type="curve" smooth="yes"/>
      <point x="1005" y="823"/>
      <point x="899" y="783"/>
      <point x="715" y="783" type="curve" smooth="yes"/>
    </contour>
  </outline>
</glyph>
<glyph name="R" format="1">
  <advance width="1408"/>
  <unicode hex="0052"/>
  <outline>
    <contour>
      <point x="676" y="1438" type="move" name="top"/>
    </contour>
    <contour>
      <point x="759" y="0" type="move" name="bot"/>
    </contour>
    <contour>
      <point x="305" y="2" type="curve" smooth="yes"/>
      <point x="371" y="2"/>
      <point x="439" y="44"/>
      <point x="439" y="129" type="curve" smooth="yes"/>
      <point x="439" y="627" type="line"/>
      <point x="715" y="627" type="line" smooth="yes"/>
      <point x="914" y="628"/>
      <point x="956" y="559"/>
      <point x="975" y="381" type="curve" smooth="yes"/>
      <point x="1003" y="117" type="line" smooth="yes"/>
      <point x="1011" y="39"/>
      <point x="1083" y="2"/>
      <point x="1145" y="2" type="curve" smooth="yes"/>
      <point x="1211" y="2"/>
      <point x="1280" y="50"/>
      <point x="1271" y="130" type="curve" smooth="yes"/>
      <point x="1240" y="401" type="line" smooth="yes"/>
      <point x="1221" y="570"/>
      <point x="1135" y="698"/>
      <point x="949" y="739" type="curve"/>
      <point x="949" y="743" type="line"/>
      <point x="1172" y="778"/>
      <point x="1275" y="910"/>
      <point x="1275" y="1071" type="curve" smooth="yes"/>
      <point x="1275" y="1364"/>
      <point x="1024" y="1438"/>
      <point x="756" y="1438" type="curve" smooth="yes"/>
      <point x="306" y="1438" type="line" smooth="yes"/>
      <point x="233" y="1438"/>
      <point x="173" y="1379"/>
      <point x="173" y="1307" type="curve" smooth="yes"/>
      <point x="173" y="129" type="line" smooth="yes"/>
      <point x="173" y="44"/>
      <point x="239" y="2"/>
    </contour>
    <contour>
      <point x="439" y="831" type="line"/>
      <point x="439" y="1227" type="line"/>
      <point x="706" y="1227" type="line" smooth="yes"/>
      <point x="843" y="1227"/>
      <point x="1007" y="1236"/>
      <point x="1007" y="1037" type="curve" smooth="yes"/>
      <point x="1007" y="835"/>
      <point x="820" y="831"/>
      <point x="655" y="831" type="curve" smooth="yes"/>
    </contour>
  </outline>
</glyph>
<glyph name="S" format="1">
  <advance width="1317"/>
  <unicode hex="0053"/>
  <outline>
    <contour>
      <point x="666" y="1438" type="move" name="top"/>
    </contour>
    <contour>
      <point x="655" y="0" type="move" name="bot"/>
    </contour>
    <contour>
      <point x="654" y="-22" type="curve" smooth="yes"/>
      <point x="998" y="-22"/>
      <point x="1221" y="140"/>
      <point x="1221" y="407" type="curve" smooth="yes"/>
      <point x="1221" y="638"/>
      <point x="1083" y="739"/>
      <point x="841" y="817" type="curve" smooth="yes"/>
      <point x="514" y="922" type="line" smooth="yes"/>
      <point x="422" y="952"/>
      <point x="382" y="1002"/>
      <point x="382" y="1086" type="curve" smooth="yes"/>
      <point x="382" y="1231"/>
      <point x="526" y="1269"/>
      <point x="688" y="1269" type="curve" smooth="yes"/>
      <point x="832" y="1269"/>
      <point x="961" y="1218"/>
      <point x="1037" y="1175" type="curve" smooth="yes"/>
      <point x="1149" y="1111"/>
      <point x="1231" y="1275"/>
      <point x="1157" y="1335" type="curve"/>
      <point x="1064" y="1413"/>
      <point x="873" y="1481"/>
      <point x="669" y="1481" type="curve" smooth="yes"/>
      <point x="361" y="1481"/>
      <point x="126" y="1333"/>
      <point x="126" y="1077" type="curve" smooth="yes"/>
      <point x="126" y="875"/>
      <point x="225" y="772"/>
      <point x="443" y="699" type="curve" smooth="yes"/>
      <point x="773" y="589" type="line" smooth="yes"/>
      <point x="898" y="547"/>
      <point x="961" y="499"/>
      <point x="961" y="385" type="curve" smooth="yes"/>
      <point x="961" y="250"/>
      <point x="827" y="190"/>
      <point x="656" y="190" type="curve" smooth="yes"/>
      <point x="472" y="190"/>
      <point x="335" y="259"/>
      <point x="249" y="315" type="curve" smooth="yes"/>
      <point x="175" y="363"/>
      <point x="72" y="187"/>
      <point x="127" y="142" type="curve" smooth="yes"/>
      <point x="221" y="64"/>
      <point x="385" y="-22"/>
    </contour>
  </outline>
</glyph>
<glyph name="T" format="1">
  <advance width="1199"/>
  <unicode hex="0054"/>
  <outline>
    <contour>
      <point x="613" y="1438" type="move" name="top"/>
    </contour>
    <contour>
      <point x="604" y="699" type="move" name="mid"/>
    </contour>
    <contour>
      <point x="599" y="0" type="move" name="bot"/>
    </contour>
    <contour>
      <point x="600" y="-1" type="curve" smooth="yes"/>
      <point x="667" y="-1"/>
      <point x="733" y="43"/>
      <point x="733" y="129" type="curve" smooth="yes"/>
      <point x="733" y="1226" type="line"/>
      <point x="1072" y="1226" type="line" smooth="yes"/>
      <point x="1140" y="1226"/>
      <point x="1174" y="1282"/>
      <point x="1174" y="1333" type="curve" smooth="yes"/>
      <point x="1174" y="1383"/>
      <point x="1139" y="1438"/>
      <point x="1072" y="1438" type="curve" smooth="yes"/>
      <point x="128" y="1438" type="line" smooth="yes"/>
      <point x="60" y="1438"/>
      <point x="25" y="1383"/>
      <point x="25" y="1332" type="curve" smooth="yes"/>
      <point x="25" y="1281"/>
      <point x="59" y="1226"/>
      <point x="128" y="1226" type="curve" smooth="yes"/>
      <point x="467" y="1226" type="line"/>
      <point x="467" y="129" type="line" smooth="yes"/>
      <point x="467" y="43"/>
      <point x="533" y="-1"/>
    </contour>
  </outline>
</glyph>
<glyph name="Y" format="1">
  <advance width="1302"/>
  <unicode hex="0059"/>
  <outline>
    <contour>
      <point x="660" y="1438" type="move" name="top"/>
    </contour>
    <contour>
      <point x="514" y="130" type="line" smooth="yes"/>
      <point x="514" y="-43"/>
      <point x="780" y="-42"/>
      <point x="780" y="129" type="curve" smooth="yes"/>
      <point x="780" y="592" type="line"/>
      <point x="1213" y="1282" type="line" smooth="yes"/>
      <point x="1296" y="1414"/>
      <point x="1093" y="1505"/>
      <point x="1019" y="1383" type="curve" smooth="yes"/>
      <point x="661" y="789" type="line"/>
      <point x="315" y="1367" type="line" smooth="yes"/>
      <point x="222" y="1522"/>
      <point x="8" y="1383"/>
      <point x="85" y="1261" type="curve" smooth="yes"/>
      <point x="514" y="582" type="line"/>
    </contour>
  </outline>
</glyph>
<glyph name="Z" format="1">
  <advance width="1196"/>
  <unicode hex="005A"/>
  <outline>
    <contour>
      <point x="646" y="1438" type="move" name="top"/>
    </contour>
    <contour>
      <point x="208" y="0" type="curve" smooth="yes"/>
      <point x="1045" y="0" type="line" smooth="yes"/>
      <point x="1112" y="0"/>
      <point x="1144" y="57"/>
      <point x="1144" y="106" type="curve" smooth="yes"/>
      <point x="1144" y="156"/>
      <point x="1112" y="211"/>
      <point x="1045" y="211" type="curve" smooth="yes"/>
      <point x="401" y="211" type="line"/>
      <point x="1123" y="1252" type="line" smooth="yes"/>
      <point x="1142" y="1279"/>
      <point x="1150" y="1305"/>
      <point x="1150" y="1332" type="curve" smooth="yes"/>
      <point x="1150" y="1391"/>
      <point x="1106" y="1438"/>
      <point x="1035" y="1438" type="curve" smooth="yes"/>
      <point x="192" y="1438" type="line" smooth="yes"/>
      <point x="125" y="1438"/>
      <point x="93" y="1383"/>
      <point x="93" y="1333" type="curve" smooth="yes"/>
      <point x="93" y="1284"/>
      <point x="125" y="1226"/>
      <point x="192" y="1226" type="curve" smooth="yes"/>
      <point x="824" y="1226" type="line"/>
      <point x="106" y="187" type="line" smooth="yes"/>
      <point x="89" y="162"/>
      <point x="80" y="136"/>
      <point x="80" y="109" type="curve" smooth="yes"/>
      <point x="80" y="52"/>
      <point x="120" y="0"/>
    </contour>
  </outline>
</glyph>
<glyph name="b" format="1">
  <advance width="1213"/>
  <unicode hex="0062"/>
  <outline>
    <contour>
      <point x="700" y="-12" type="curve" smooth="yes"/>
      <point x="980" y="-12"/>
      <point x="1133" y="233"/>
      <point x="1133" y="507" type="curve" smooth="yes"/>
      <point x="1133" y="812"/>
      <point x="961" y="1013"/>
      <point x="686" y="1013" type="curve" smooth="yes"/>
      <point x="540" y="1013"/>
      <point x="438" y="962"/>
      <point x="370" y="856" type="curve"/>
      <point x="370" y="1328" type="line" smooth="yes"/>
      <point x="370" y="1401"/>
      <point x="312" y="1438"/>
      <point x="253" y="1438" type="curve" smooth="yes"/>
      <point x="194" y="1438"/>
      <point x="136" y="1401"/>
      <point x="136" y="1328" type="curve" smooth="yes"/>
      <point x="136" y="114" type="line" smooth="yes"/>
      <point x="136" y="40"/>
      <point x="197" y="0"/>
      <point x="255" y="0" type="curve" smooth="yes"/>
      <point x="320" y="0"/>
      <point x="370" y="31"/>
      <point x="370" y="113" type="curve" smooth="yes"/>
      <point x="370" y="156" type="line"/>
      <point x="439" y="38"/>
      <point x="552" y="-12"/>
    </contour>
    <contour>
      <point x="643" y="146" type="curve" smooth="yes"/>
      <point x="436" y="146"/>
      <point x="371" y="277"/>
      <point x="371" y="503" type="curve" smooth="yes"/>
      <point x="371" y="680"/>
      <point x="443" y="855"/>
      <point x="641" y="855" type="curve" smooth="yes"/>
      <point x="839" y="855"/>
      <point x="899" y="668"/>
      <point x="899" y="507" type="curve" smooth="yes"/>
      <point x="899" y="355"/>
      <point x="843" y="146"/>
    </contour>
  </outline>
</glyph>
<glyph name="d" format="1">
  <advance width="1213"/>
  <unicode hex="0064"/>
  <outline>
    <contour>
      <point x="904" y="1175" type="move" name="mid"/>
    </contour>
    <contour>
      <point x="513" y="-12" type="curve" smooth="yes"/>
      <point x="661" y="-12"/>
      <point x="774" y="38"/>
      <point x="843" y="156" type="curve"/>
      <point x="843" y="113" type="line" smooth="yes"/>
      <point x="843" y="31"/>
      <point x="893" y="0"/>
      <point x="958" y="0" type="curve" smooth="yes"/>
      <point x="1016" y="0"/>
      <point x="1077" y="40"/>
      <point x="1077" y="114" type="curve" smooth="yes"/>
      <point x="1077" y="1328" type="line" smooth="yes"/>
      <point x="1077" y="1401"/>
      <point x="1019" y="1438"/>
      <point x="960" y="1438" type="curve" smooth="yes"/>
      <point x="901" y="1438"/>
      <point x="843" y="1401"/>
      <point x="843" y="1328" type="curve" smooth="yes"/>
      <point x="843" y="856" type="line"/>
      <point x="775" y="962"/>
      <point x="673" y="1013"/>
      <point x="527" y="1013" type="curve" smooth="yes"/>
      <point x="252" y="1013"/>
      <point x="80" y="812"/>
      <point x="80" y="507" type="curve" smooth="yes"/>
      <point x="80" y="233"/>
      <point x="233" y="-12"/>
    </contour>
    <contour>
      <point x="570" y="146" type="curve" smooth="yes"/>
      <point x="370" y="146"/>
      <point x="314" y="355"/>
      <point x="314" y="507" type="curve" smooth="yes"/>
      <point x="314" y="668"/>
      <point x="374" y="855"/>
      <point x="572" y="855" type="curve" smooth="yes"/>
      <point x="770" y="855"/>
      <point x="842" y="680"/>
      <point x="842" y="503" type="curve" smooth="yes"/>
      <point x="842" y="277"/>
      <point x="777" y="146"/>
    </contour>
  </outline>
</glyph>
<glyph name="g" format="1">
  <advance width="1206"/>
  <unicode hex="0067"/>
  <outline>
    <contour>
      <point x="587" y="1001" type="move" name="top"/>
    </contour>
    <contour>
      <point x="575" y="-442" type="curve" smooth="yes"/>
      <point x="865" y="-442"/>
      <point x="1079" y="-304"/>
      <point x="1079" y="20" type="curve" smooth="yes"/>
      <point x="1079" y="890" type="line" smooth="yes"/>
      <point x="1079" y="964"/>
      <point x="1023" y="1001"/>
      <point x="968" y="1001" type="curve" smooth="yes"/>
      <point x="917" y="1001"/>
      <point x="868" y="971"/>
      <point x="860" y="912" type="curve"/>
      <point x="860" y="858" type="line"/>
      <point x="798" y="946"/>
      <point x="725" y="1013"/>
      <point x="547" y="1013" type="curve" smooth="yes"/>
      <point x="256" y="1013"/>
      <point x="80" y="795"/>
      <point x="80" y="494" type="curve" smooth="yes"/>
      <point x="80" y="189"/>
      <point x="268" y="0"/>
      <point x="553" y="0" type="curve" smooth="yes"/>
      <point x="687" y="0"/>
      <point x="792" y="47"/>
      <point x="855" y="155" type="curve"/>
      <point x="855" y="0" type="line" smooth="yes"/>
      <point x="855" y="-180"/>
      <point x="736" y="-286"/>
      <point x="558" y="-286" type="curve" smooth="yes"/>
      <point x="432" y="-286"/>
      <point x="360" y="-244"/>
      <point x="282" y="-218" type="curve"/>
      <point x="193" y="-182"/>
      <point x="132.896" y="-302.119"/>
      <point x="215" y="-356" type="curve" smooth="yes"/>
      <point x="283" y="-401"/>
      <point x="421" y="-442"/>
    </contour>
    <contour>
      <point x="592" y="152" type="curve"/>
      <point x="450" y="155"/>
      <point x="314" y="255"/>
      <point x="314" y="500" type="curve" smooth="yes"/>
      <point x="314" y="684"/>
      <point x="392" y="855"/>
      <point x="592" y="855" type="curve" smooth="yes"/>
      <point x="787" y="855"/>
      <point x="854" y="706"/>
      <point x="854" y="498" type="curve" smooth="yes"/>
      <point x="854" y="246"/>
      <point x="737" y="155"/>
    </contour>
  </outline>
</glyph>
<glyph name="n" format="1">
  <advance width="1185"/>
  <unicode hex="006E"/>
  <outline>
    <contour>
      <point x="620" y="991" type="move" name="top"/>
    </contour>
    <contour>
      <point x="604" y="0" type="move" name="bot"/>
    </contour>
    <contour>
      <point x="253" y="0" type="curve" smooth="yes"/>
      <point x="313" y="0"/>
      <point x="370" y="38"/>
      <point x="370" y="113" type="curve" smooth="yes"/>
      <point x="370" y="550" type="line" smooth="yes"/>
      <point x="370" y="739"/>
      <point x="494" y="855"/>
      <point x="626" y="855" type="curve" smooth="yes"/>
      <point x="733" y="855"/>
      <point x="823" y="785"/>
      <point x="823" y="633" type="curve" smooth="yes"/>
      <point x="823" y="113" type="line" smooth="yes"/>
      <point x="823" y="38"/>
      <point x="881" y="0"/>
      <point x="939" y="0" type="curve" smooth="yes"/>
      <point x="999" y="0"/>
      <point x="1057" y="38"/>
      <point x="1057" y="113" type="curve" smooth="yes"/>
      <point x="1057" y="631" type="line" smooth="yes"/>
      <point x="1057" y="899"/>
      <point x="881" y="1013"/>
      <point x="694" y="1013" type="curve" smooth="yes"/>
      <point x="543" y="1013"/>
      <point x="429" y="956"/>
      <point x="370" y="850" type="curve"/>
      <point x="370" y="895" type="line" smooth="yes"/>
      <point x="370" y="966"/>
      <point x="313" y="1001"/>
      <point x="254" y="1001" type="curve" smooth="yes"/>
      <point x="194" y="1001"/>
      <point x="136" y="964"/>
      <point x="136" y="891" type="curve" smooth="yes"/>
      <point x="136" y="113" type="line" smooth="yes"/>
      <point x="136" y="38"/>
      <point x="194" y="0"/>
    </contour>
  </outline>
</glyph>
<glyph name="o" format="1">
  <advance width="1195"/>
  <unicode hex="006F"/>
  <outline>
    <contour>
      <point x="596" y="991" type="move" name="top"/>
    </contour>
    <contour>
      <point x="597" y="146" type="curve" smooth="yes"/>
      <point x="418" y="146"/>
      <point x="311" y="275"/>
      <point x="311" y="499" type="curve" smooth="yes"/>
      <point x="311" y="724"/>
      <point x="417" y="855"/>
      <point x="597" y="855" type="curve" smooth="yes"/>
      <point x="777" y="855"/>
      <point x="884" y="724"/>
      <point x="884" y="499" type="curve" smooth="yes"/>
      <point x="884" y="275"/>
      <point x="777" y="146"/>
    </contour>
    <contour>
      <point x="597" y="-12" type="curve" smooth="yes"/>
      <point x="959" y="-12"/>
      <point x="1115" y="252"/>
      <point x="1115" y="499" type="curve" smooth="yes"/>
      <point x="1115" y="763"/>
      <point x="948" y="1013"/>
      <point x="597" y="1013" type="curve" smooth="yes"/>
      <point x="240" y="1013"/>
      <point x="80" y="755"/>
      <point x="80" y="499" type="curve" smooth="yes"/>
      <point x="80" y="250"/>
      <point x="236" y="-12"/>
    </contour>
  </outline>
</glyph>
<glyph name="q" format="1">
  <advance width="1213"/>
  <unicode hex="0071"/>
  <outline>
    <contour>
      <point x="960" y="-382" type="curve" smooth="yes"/>
      <point x="1019" y="-382"/>
      <point x="1077" y="-345"/>
      <point x="1077" y="-272" type="curve" smooth="yes"/>
      <point x="1077" y="887" type="line" smooth="yes"/>
      <point x="1077" y="961"/>
      <point x="1016" y="1001"/>
      <point x="958" y="1001" type="curve" smooth="yes"/>
      <point x="893" y="1001"/>
      <point x="843" y="970"/>
      <point x="843" y="888" type="curve" smooth="yes"/>
      <point x="843" y="845" type="line"/>
      <point x="774" y="963"/>
      <point x="661" y="1013"/>
      <point x="513" y="1013" type="curve" smooth="yes"/>
      <point x="233" y="1013"/>
      <point x="80" y="768"/>
      <point x="80" y="494" type="curve" smooth="yes"/>
      <point x="80" y="189"/>
      <point x="252" y="-12"/>
      <point x="527" y="-12" type="curve" smooth="yes"/>
      <point x="673" y="-12"/>
      <point x="775" y="39"/>
      <point x="843" y="145" type="curve"/>
      <point x="843" y="-272" type="line" smooth="yes"/>
      <point x="843" y="-345"/>
      <point x="901" y="-382"/>
    </contour>
    <contour>
      <point x="572" y="146" type="curve" smooth="yes"/>
      <point x="374" y="146"/>
      <point x="314" y="332"/>
      <point x="314" y="493" type="curve" smooth="yes"/>
      <point x="314" y="645"/>
      <point x="370" y="855"/>
      <point x="570" y="855" type="curve" smooth="yes"/>
      <point x="777" y="855"/>
      <point x="842" y="723"/>
      <point x="842" y="497" type="curve" smooth="yes"/>
      <point x="842" y="320"/>
      <point x="770" y="146"/>
    </contour>
  </outline>
</glyph>
<glyph name="v" format="1">
  <advance width="1069"/>
  <unicode hex="0076"/>
  <outline>
    <contour>
      <point x="538" y="-3" type="curve"/>
      <point x="538" y="230" type="line"/>
      <point x="265" y="930" type="line" smooth="yes"/>
      <point x="212" y="1069"/>
      <point x="11" y="984"/>
      <point x="62" y="857" type="curve" smooth="yes"/>
      <point x="339" y="168" type="line" smooth="yes"/>
      <point x="386" y="51"/>
      <point x="437" y="-3"/>
    </contour>
    <contour>
      <point x="538" y="-3" type="line"/>
      <point x="639" y="-3"/>
      <point x="690" y="51"/>
      <point x="737" y="168" type="curve" smooth="yes"/>
      <point x="1014" y="857" type="line" smooth="yes"/>
      <point x="1065" y="984"/>
      <point x="864" y="1069"/>
      <point x="811" y="930" type="curve" smooth="yes"/>
      <point x="538" y="230" type="line"/>
    </contour>
  </outline>
</glyph>
<glyph name="macron" format="1">
  <advance width="569"/>
  <unicode hex="00AF"/>
  <outline>
    <contour>
      <point x="294" y="1040" type="move" name="_top"/>
    </contour>
    <contour>
      <point x="293" y="1363" type="move" name="_mid"/>
    </contour>
    <contour>
      <point x="16" y="1285" type="curve" smooth="yes"/>
      <point x="558" y="1285" type="line" smooth="yes"/>
      <point x="609" y="1285"/>
      <point x="633" y="1324"/>
      <point x="633" y="1364" type="curve" smooth="yes"/>
      <point x="633" y="1403"/>
      <point x="609" y="1443"/>
      <point x="558" y="1443" type="curve" smooth="yes"/>
      <point x="16" y="1443" type="line" smooth="yes"/>
      <point x="-36" y="1443"/>
      <point x="-61" y="1403"/>
      <point x="-61" y="1364" type="curve" smooth="yes"/>
      <point x="-61" y="1324"/>
      <point x="-36" y="1285"/>
    </contour>
  </outline>
</glyph>
<glyph name="threesuperior" format="1">
  <advance width="818"/>
  <unicode hex="00B3"/>
  <outline>
    <contour>
      <point x="405" y="560" type="curve" smooth="yes"/>
      <point x="568" y="560"/>
      <point x="691" y="642"/>
      <point x="691" y="790" type="curve" smooth="yes"/>
      <point x="691" y="900"/>
      <point x="634" y="981"/>
      <point x="529" y="1005" type="curve"/>
      <point x="621" y="1039"/>
      <point x="673" y="1094"/>
      <point x="673" y="1193" type="curve" smooth="yes"/>
      <point x="673" y="1345"/>
      <point x="562" y="1427"/>
      <point x="411" y="1427" type="curve" smooth="yes"/>
      <point x="312" y="1427"/>
      <point x="157" y="1394"/>
      <point x="157" y="1333" type="curve" smooth="yes"/>
      <point x="157" y="1306"/>
      <point x="178" y="1280"/>
      <point x="211" y="1280" type="curve" smooth="yes"/>
      <point x="230" y="1280"/>
      <point x="307" y="1320"/>
      <point x="401" y="1320" type="curve" smooth="yes"/>
      <point x="481" y="1320"/>
      <point x="547" y="1273"/>
      <point x="547" y="1191" type="curve" smooth="yes"/>
      <point x="547" y="1104"/>
      <point x="473" y="1053"/>
      <point x="381" y="1053" type="curve" smooth="yes"/>
      <point x="336" y="1053" type="line" smooth="yes"/>
      <point x="303" y="1053"/>
      <point x="288" y="1024"/>
      <point x="288" y="997" type="curve" smooth="yes"/>
      <point x="288" y="972"/>
      <point x="305" y="944"/>
      <point x="340" y="944" type="curve" smooth="yes"/>
      <point x="386" y="944" type="line" smooth="yes"/>
      <point x="486" y="944"/>
      <point x="560" y="889"/>
      <point x="560" y="797" type="curve" smooth="yes"/>
      <point x="560" y="713"/>
      <point x="498" y="671"/>
      <point x="405" y="671" type="curve" smooth="yes"/>
      <point x="311" y="671"/>
      <point x="249" y="713"/>
      <point x="218" y="713" type="curve" smooth="yes"/>
      <point x="183" y="713"/>
      <point x="163" y="685"/>
      <point x="163" y="658" type="curve" smooth="yes"/>
      <point x="163" y="594"/>
      <point x="324" y="560"/>
    </contour>
  </outline>
</glyph>
<glyph name="threequarters" format="1">
  <advance width="1722"/>
  <unicode hex="00BE"/>
  <outline>
    <contour>
      <point x="320" y="566" type="curve" smooth="yes"/>
      <point x="482" y="566"/>
      <point x="606" y="647"/>
      <point x="606" y="796" type="curve" smooth="yes"/>
      <point x="606" y="907"/>
      <point x="540" y="987"/>
      <point x="433" y="1010" type="curve"/>
      <point x="433" y="1104.18"/>
      <point x="588" y="1100"/>
      <point x="588" y="1199" type="curve" smooth="yes"/>
      <point x="588" y="1350"/>
      <point x="466" y="1433"/>
      <point x="315" y="1433" type="curve" smooth="yes"/>
      <point x="215" y="1433"/>
      <point x="72" y="1400"/>
      <point x="72" y="1338" type="curve" smooth="yes"/>
      <point x="72" y="1311"/>
      <point x="93" y="1286"/>
      <point x="126" y="1286" type="curve" smooth="yes"/>
      <point x="144" y="1286"/>
      <point x="233" y="1320"/>
      <point x="312" y="1320" type="curve" smooth="yes"/>
      <point x="392" y="1320"/>
      <point x="462" y="1277"/>
      <point x="462" y="1197" type="curve" smooth="yes"/>
      <point x="462" y="1108"/>
      <point x="388" y="1061"/>
      <point x="296" y="1059" type="curve" smooth="yes"/>
      <point x="255" y="1058" type="line" smooth="yes"/>
      <point x="220" y="1057"/>
      <point x="204" y="1033"/>
      <point x="204" y="1006" type="curve" smooth="yes"/>
      <point x="204" y="979"/>
      <point x="220" y="955"/>
      <point x="255" y="955" type="curve" smooth="yes"/>
      <point x="300" y="955" type="line" smooth="yes"/>
      <point x="401" y="955"/>
      <point x="475" y="894"/>
      <point x="475" y="802" type="curve" smooth="yes"/>
      <point x="475" y="718"/>
      <point x="414" y="677"/>
      <point x="319" y="677" type="curve" smooth="yes"/>
      <point x="239" y="677"/>
      <point x="163" y="715"/>
      <point x="134" y="715" type="curve" smooth="yes"/>
      <point x="99" y="715"/>
      <point x="78" y="691"/>
      <point x="78" y="664" type="curve" smooth="yes"/>
      <point x="78" y="600"/>
      <point x="239" y="566"/>
    </contour>
    <contour>
      <point x="1404" y="1" type="curve" smooth="yes"/>
      <point x="1435" y="1"/>
      <point x="1467" y="23"/>
      <point x="1467" y="68" type="curve" smooth="yes"/>
      <point x="1467" y="183" type="line"/>
      <point x="1540" y="183" type="line" smooth="yes"/>
      <point x="1575" y="183"/>
      <point x="1591" y="206"/>
      <point x="1591" y="229" type="curve" smooth="yes"/>
      <point x="1591" y="252"/>
      <point x="1575" y="275"/>
      <point x="1540" y="275" type="curve" smooth="yes"/>
      <point x="1467" y="275" type="line"/>
      <point x="1467" y="730" type="line" smooth="yes"/>
      <point x="1467" y="802"/>
      <point x="1429" y="838"/>
      <point x="1376" y="838" type="curve" smooth="yes"/>
      <point x="1327" y="838"/>
      <point x="1288" y="821"/>
      <point x="1253" y="757" type="curve"/>
      <point x="953" y="284" type="line" smooth="yes"/>
      <point x="944" y="271"/>
      <point x="940" y="257"/>
      <point x="940" y="242" type="curve" smooth="yes"/>
      <point x="940" y="207"/>
      <point x="967" y="183"/>
      <point x="1012" y="183" type="curve" smooth="yes"/>
      <point x="1340" y="183" type="line"/>
      <point x="1340" y="68" type="line" smooth="yes"/>
      <point x="1340" y="23"/>
      <point x="1372" y="1"/>
    </contour>
    <contour>
      <point x="613" y="-76" type="curve" smooth="yes"/>
      <point x="642" y="-76"/>
      <point x="670" y="-61"/>
      <point x="682" y="-25" type="curve" smooth="yes"/>
      <point x="1151" y="1352" type="line" smooth="yes"/>
      <point x="1154" y="1363"/>
      <point x="1156" y="1373"/>
      <point x="1156" y="1380" type="curve" smooth="yes"/>
      <point x="1156" y="1425"/>
      <point x="1119" y="1451"/>
      <point x="1080" y="1451" type="curve" smooth="yes"/>
      <point x="1051" y="1451"/>
      <point x="1021" y="1435"/>
      <point x="1009" y="1399" type="curve" smooth="yes"/>
      <point x="543" y="22" type="line" smooth="yes"/>
      <point x="540" y="11"/>
      <point x="538" y="1"/>
      <point x="538" y="-6" type="curve" smooth="yes"/>
      <point x="538" y="-49"/>
      <point x="576" y="-76"/>
    </contour>
    <contour>
      <point x="1066" y="273" type="line"/>
      <point x="1340" y="718" type="line"/>
      <point x="1340" y="273" type="line"/>
    </contour>
  </outline>
</glyph>
<glyph name="dotlessi" format="1">
  <advance width="511"/>
  <unicode hex="0131"/>
  <outline>
    <contour>
      <point x="257" y="991" type="move" name="top"/>
    </contour>
    <contour>
      <point x="254" y="0" type="curve" smooth="yes"/>
      <point x="313" y="0"/>
      <point x="373" y="40"/>
      <point x="373" y="116" type="curve" smooth="yes"/>
      <point x="373" y="885" type="line" smooth="yes"/>
      <point x="373" y="962"/>
      <point x="315" y="1002"/>
      <point x="256" y="1002" type="curve" smooth="yes"/>
      <point x="196" y="1002"/>
      <point x="138" y="962"/>
      <point x="138" y="885" type="curve" smooth="yes"/>
      <point x="138" y="116" type="line" smooth="yes"/>
      <point x="138" y="38"/>
      <point x="195" y="0"/>
    </contour>
  </outline>
</glyph>
<glyph name="kgreenlandic" format="1">
  <advance width="1047"/>
  <unicode hex="0138"/>
  <outline>
    <contour>
      <point x="833" y="29" type="line" smooth="yes"/>
      <point x="930" y="-69"/>
      <point x="1088" y="69"/>
      <point x="991" y="165" type="curve" smooth="yes"/>
      <point x="630" y="523" type="line"/>
      <point x="946" y="844" type="line" smooth="yes"/>
      <point x="1027" y="926"/>
      <point x="898" y="1079"/>
      <point x="806" y="985" type="curve" smooth="yes"/>
      <point x="380" y="550" type="line"/>
      <point x="380" y="484" type="line"/>
    </contour>
    <contour>
      <point x="261" y="0" type="curve" smooth="yes"/>
      <point x="320" y="0"/>
      <point x="380" y="40"/>
      <point x="380" y="117" type="curve" smooth="yes"/>
      <point x="380" y="896" type="line" smooth="yes"/>
      <point x="380" y="972"/>
      <point x="322" y="1012"/>
      <point x="264" y="1012" type="curve" smooth="yes"/>
      <point x="204" y="1012"/>
      <point x="146" y="972"/>
      <point x="146" y="896" type="curve" smooth="yes"/>
      <point x="146" y="117" type="line" smooth="yes"/>
      <point x="146" y="40"/>
      <point x="203" y="0"/>
    </contour>
  </outline>
</glyph>
<glyph name="Eng" format="1">
  <advance width="1557"/>
  <unicode hex="014A"/>
  <outline>
    <component base="N"/>
    <contour>
      <point x="635" y="-433" type="curve" smooth="yes"/>
      <point x="1103" y="-548"/>
      <point x="1389" y="-457"/>
      <point x="1389" y="49" type="curve" smooth="yes"/>
      <point x="1389" y="350" type="line"/>
      <point x="1154" y="353" type="line"/>
      <point x="1154" y="-7" type="line" smooth="yes"/>
      <point x="1154" y="-302"/>
      <point x="1012" y="-342"/>
      <point x="673" y="-257" type="curve" smooth="yes"/>
      <point x="541" y="-224"/>
      <point x="485" y="-396"/>
    </contour>
  </outline>
</glyph>
<glyph name="eng" format="1">
  <advance width="1195"/>
  <unicode hex="014B"/>
  <outline>
    <component base="n"/>
    <component base="n"/>
    <contour>
      <point x="397" y="-326" type="curve" smooth="yes"/>
      <point x="775" y="-440"/>
      <point x="1058" y="-376"/>
      <point x="1058" y="130" type="curve" smooth="yes"/>
      <point x="1058" y="353" type="line"/>
      <point x="824" y="353" type="line"/>
      <point x="824" y="94" type="line" smooth="yes"/>
      <point x="824" y="-171"/>
      <point x="741" y="-250"/>
      <point x="427" y="-154" type="curve" smooth="yes"/>
      <point x="318" y="-121"/>
      <point x="267" y="-287"/>
    </contour>
  </outline>
</glyph>
<glyph name="dotaccent" format="1">
  <advance width="615"/>
  <unicode hex="02D9"/>
  <outline>
    <contour>
      <point x="295" y="1040" type="move" name="_top"/>
    </contour>
    <contour>
      <point x="304" y="1218" type="curve" smooth="yes"/>
      <point x="388" y="1218"/>
      <point x="441" y="1278"/>
      <point x="441" y="1347" type="curve" smooth="yes"/>
      <point x="441" y="1414"/>
      <point x="388" y="1475"/>
      <point x="304" y="1475" type="curve" smooth="yes"/>
      <point x="221" y="1475"/>
      <point x="168" y="1414"/>
      <point x="168" y="1347" type="curve" smooth="yes"/>
      <point x="168" y="1278"/>
      <point x="221" y="1218"/>
    </contour>
  </outline>
</glyph>
<glyph name="ring" format="1">
  <advance width="569"/>
  <unicode hex="02DA"/>
  <outline>
    <contour>
      <point x="285" y="1040" type="move" name="_top"/>
    </contour>
    <contour>
      <point x="285" y="1283" type="curve" smooth="yes"/>
      <point x="224" y="1283"/>
      <point x="180" y="1325"/>
      <point x="180" y="1385" type="curve" smooth="yes"/>
      <point x="180" y="1445"/>
      <point x="224" y="1487"/>
      <point x="285" y="1487" type="curve" smooth="yes"/>
      <point x="346" y="1487"/>
      <point x="390" y="1445"/>
      <point x="390" y="1385" type="curve" smooth="yes"/>
      <point x="390" y="1325"/>
      <point x="346" y="1283"/>
    </contour>
    <contour>
      <point x="285" y="1183" type="curve" smooth="yes"/>
      <point x="406" y="1183"/>
      <point x="491" y="1267"/>
      <point x="491" y="1385" type="curve" smooth="yes"/>
      <point x="491" y="1503"/>
      <point x="406" y="1586"/>
      <point x="285" y="1586" type="curve" smooth="yes"/>
      <point x="164" y="1586"/>
      <point x="78" y="1503"/>
      <point x="78" y="1385" type="curve" smooth="yes"/>
      <point x="78" y="1267"/>
      <point x="164" y="1183"/>
    </contour>
  </outline>
</glyph>
<glyph name="ogonek" format="1">
  <advance width="569"/>
  <unicode hex="02DB"/>
  <outline>
    <contour>
      <point x="243" y="0" type="move" name="_ogonek"/>
    </contour>
    <contour>
      <point x="459" y="-419" type="curve"/>
      <point x="459" y="-312" type="line"/>
      <point x="347" y="-312"/>
      <point x="167" y="-272"/>
      <point x="315" y="0" type="curve"/>
      <point x="203" y="0" type="line"/>
      <point x="-71" y="-321"/>
      <point x="141" y="-555"/>
    </contour>
  </outline>
</glyph>
<glyph name="uni0311" format="1">
  <advance width="569"/>
  <unicode hex="0311"/>
  <outline>
    <contour>
      <point x="286" y="1040" type="move" name="_top"/>
    </contour>
    <contour>
      <point x="42" y="1212" type="curve" smooth="yes"/>
      <point x="67" y="1212"/>
      <point x="95" y="1225"/>
      <point x="111" y="1253" type="curve"/>
      <point x="151" y="1310"/>
      <point x="192" y="1333"/>
      <point x="275" y="1333" type="curve" smooth="yes"/>
      <point x="358" y="1333"/>
      <point x="399" y="1310"/>
      <point x="439" y="1253" type="curve"/>
      <point x="455" y="1225"/>
      <point x="481" y="1212"/>
      <point x="508" y="1212" type="curve" smooth="yes"/>
      <point x="543" y="1212"/>
      <point x="576" y="1235"/>
      <point x="576" y="1275" type="curve" smooth="yes"/>
      <point x="576" y="1287"/>
      <point x="573" y="1300"/>
      <point x="567" y="1314" type="curve" smooth="yes"/>
      <point x="520" y="1422"/>
      <point x="412" y="1483"/>
      <point x="275" y="1483" type="curve" smooth="yes"/>
      <point x="138" y="1483"/>
      <point x="30" y="1422"/>
      <point x="-17" y="1314" type="curve" smooth="yes"/>
      <point x="-23" y="1300"/>
      <point x="-26" y="1287"/>
      <point x="-26" y="1275" type="curve" smooth="yes"/>
      <point x="-26" y="1235"/>
      <point x="7" y="1212"/>
    </contour>
  </outline>
</glyph>
<glyph name="uni0326" format="1">
  <advance width="615"/>
  <unicode hex="0326"/>
  <outline>
    <contour>
      <point x="331" y="0" type="move" name="_bot"/>
    </contour>
    <contour>
      <point x="128" y="-673" type="curve"/>
      <point x="210" y="-673" type="line"/>
      <point x="239" y="-674"/>
      <point x="255" y="-662"/>
      <point x="266" y="-630" type="curve" smooth="yes"/>
      <point x="447" y="-160" type="line" smooth="yes"/>
      <point x="452" y="-146"/>
      <point x="455" y="-107"/>
      <point x="413" y="-104" type="curve"/>
      <point x="261" y="-104" type="line"/>
      <point x="229" y="-105"/>
      <point x="196" y="-113"/>
      <point x="188" y="-160" type="curve" smooth="yes"/>
      <point x="104" y="-630" type="line" smooth="yes"/>
      <point x="102" y="-642"/>
      <point x="100" y="-672"/>
    </contour>
  </outline>
</glyph>
<glyph name="lessequal" format="1">
  <advance width="1203"/>
  <unicode hex="2264"/>
  <outline>
    <contour>
      <point x="1034" y="261" type="curve" smooth="yes"/>
      <point x="1078" y="261"/>
      <point x="1109" y="301"/>
      <point x="1109" y="341" type="curve" smooth="yes"/>
      <point x="1109" y="368"/>
      <point x="1095" y="395"/>
      <point x="1062" y="409" type="curve" smooth="yes"/>
      <point x="298" y="739" type="line"/>
      <point x="1060" y="1055" type="line" smooth="yes"/>
      <point x="1095" y="1069"/>
      <point x="1109" y="1096"/>
      <point x="1109" y="1123" type="curve" smooth="yes"/>
      <point x="1109" y="1164"/>
      <point x="1075" y="1206"/>
      <point x="1031" y="1206" type="curve" smooth="yes"/>
      <point x="1020" y="1206"/>
      <point x="1009" y="1204"/>
      <point x="999" y="1199" type="curve" smooth="yes"/>
      <point x="133" y="836" type="line" smooth="yes"/>
      <point x="82" y="815"/>
      <point x="59" y="777"/>
      <point x="59" y="740" type="curve" smooth="yes"/>
      <point x="59" y="703"/>
      <point x="82" y="666"/>
      <point x="131" y="646" type="curve"/>
      <point x="1000" y="268" type="line" smooth="yes"/>
      <point x="1011" y="263"/>
      <point x="1023" y="261"/>
    </contour>
    <contour>
      <point x="165" y="2" type="curve" smooth="yes"/>
      <point x="1011" y="2" type="line" smooth="yes"/>
      <point x="1056" y="2"/>
      <point x="1079" y="36"/>
      <point x="1079" y="71" type="curve" smooth="yes"/>
      <point x="1079" y="106"/>
      <point x="1056" y="141"/>
      <point x="1011" y="141" type="curve" smooth="yes"/>
      <point x="165" y="141" type="line" smooth="yes"/>
      <point x="120" y="141"/>
      <point x="98" y="107"/>
      <point x="98" y="72" type="curve" smooth="yes"/>
      <point x="98" y="37"/>
      <point x="120" y="2"/>
    </contour>
  </outline>
</glyph>
